<?xml version="1.0" encoding="utf-8"?>
<!-- Generator: Adobe Illustrator 22.0.1, SVG Export Plug-In . SVG Version: 6.00 Build 0)  -->
<svg version="1.1" id="Layer_1" xmlns="http://www.w3.org/2000/svg" xmlns:xlink="http://www.w3.org/1999/xlink" x="0px" y="0px"
	 viewBox="0 0 330 67" style="enable-background:new 0 0 330 67;" xml:space="preserve">
<style type="text/css">
	.st0{fill:#26C0DA;}
	.st1{fill:#ED1C24;}
	.st2{fill:#CCCCCC;}
	.st3{fill:#FFFFFF;}
</style>
<rect class="st0" width="67" height="67"/>
<g>
	<path class="st1" d="M73.5,39.4V4h21.5c7.3,0,10.5,4.9,10.5,9c0,4.4-2.6,7.4-6.1,8.1c3.8,0.6,6.7,4.1,6.7,8.7
		c0,4.9-3.3,9.6-10.5,9.6H73.5z M94.7,14.9c0-1.2-1-2-2.1-2h-8.3v4.1h8.3C93.7,17.1,94.7,16.2,94.7,14.9z M95.4,28.3
		c0-1.3-1-2.3-2.5-2.3h-8.6v4.5h8.6C94.4,30.5,95.4,29.6,95.4,28.3z"/>
	<path class="st1" d="M121.2,24.9V4h10.9v20.5c0,3.4,2.2,6.1,6.6,6.1c4.4,0,6.6-2.7,6.6-6.1V4h10.9v20.8c0,8.8-5.5,15.2-17.5,15.2
		S121.2,33.7,121.2,24.9z"/>
	<path class="st1" d="M180.2,39.4V13.4h-9.5V4h29.7v9.4h-9.5v26.1H180.2z"/>
	<path class="st1" d="M214.8,39.4V4h10.7v26.1H239v9.4H214.8z"/>
	<path class="st1" d="M253.9,39.4V4h26.9v9.4h-16.2v3.5h15.8v9.4h-15.8v3.9h16.2v9.4H253.9z"/>
	<path class="st1" d="M315.7,39.4l-4.9-11.2H307v11.2h-10.7V4h18.9c8.3,0,12.8,5.5,12.8,12.2c0,6.1-3.6,9.4-6.4,10.7l6.4,12.5H315.7
		z M317,16.1c0-1.9-1.7-2.8-3.5-2.8H307v5.6h6.5C315.3,18.9,317,18.1,317,16.1z"/>
</g>
<g>
	<path class="st2" d="M74,54.3c0-4.9,3.8-8.3,8.8-8.3c4.2,0,6.3,2.4,7.3,4.7l-4.2,1.9c-0.4-1.2-1.7-2.3-3.1-2.3
		c-2.3,0-3.9,1.8-3.9,4c0,2.2,1.6,4,3.9,4c1.4,0,2.7-1.1,3.1-2.3l4.2,1.9c-0.9,2.1-3.1,4.7-7.3,4.7C77.8,62.6,74,59.3,74,54.3z"/>
	<path class="st2" d="M144.1,62.3v-6.1h-5.7v6.1h-4.8v-16h4.8V52h5.7v-5.7h4.8v16H144.1z"/>
	<path class="st2" d="M193.6,55.8v-9.4h4.9v9.3c0,1.5,1,2.8,3,2.8c2,0,3-1.2,3-2.8v-9.3h4.9v9.4c0,4-2.5,6.9-7.9,6.9
		S193.6,59.7,193.6,55.8z"/>
	<path class="st2" d="M253.1,54.3c0-4.9,3.8-8.3,8.8-8.3c4.2,0,6.3,2.4,7.3,4.7l-4.2,1.9c-0.4-1.2-1.7-2.3-3.1-2.3
		c-2.3,0-3.9,1.8-3.9,4c0,2.2,1.6,4,3.9,4c1.4,0,2.7-1.1,3.1-2.3l4.2,1.9c-0.9,2.1-3.1,4.7-7.3,4.7
		C256.9,62.6,253.1,59.3,253.1,54.3z"/>
	<path class="st2" d="M322.1,62.3l-3.6-5.6l-0.9,1.2v4.4h-4.8v-16h4.8v6l4.2-6h5.9l-6,7.4l6.3,8.6H322.1z"/>
</g>
<path class="st3" d="M52.4,0L37.9,19.7l9.7,2.8l-14.5,19l8.1,2.1L14.6,67l13.6-18.8l-9.6-2.8l15.8-19.7L24.2,23L52.4,0z"/>
</svg>
